HIERARCHY
ROOT Hips
{
  OFFSET 40.9192 92.6879 18.85
  CHANNELS 6 Xposition Yposition Zposition Zrotation Xrotation Yrotation
  JOINT LeftUpLeg
  {
    OFFSET 8.64259 1.95398 -2.38835
    CHANNELS 3 Zrotation Xrotation Yrotation
    JOINT LeftLeg
    {
      OFFSET 43.7702 0 0
      CHANNELS 3 Zrotation Xrotation Yrotation
      JOINT LeftFoot
      {
        OFFSET 40.6238 0 0
        CHANNELS 3 Zrotation Xrotation Yrotation
        JOINT LeftToeBase
        {
          OFFSET 12.7242 0 0
          CHANNELS 3 Zrotation Xrotation Yrotation
          End Site
          {
            OFFSET 0 0 0
          }
        }
      }
    }
  }
  JOINT RightUpLeg
  {
    OFFSET -8.2249 1.95398 -2.59336
    CHANNELS 3 Zrotation Xrotation Yrotation
    JOINT RightLeg
    {
      OFFSET 43.5653 0 0
      CHANNELS 3 Zrotation Xrotation Yrotation
      JOINT RightFoot
      {
        OFFSET 40.6238 0 0
        CHANNELS 3 Zrotation Xrotation Yrotation
        JOINT RightToeBase
        {
          OFFSET 12.7242 0 0
          CHANNELS 3 Zrotation Xrotation Yrotation
          End Site
          {
            OFFSET 0 0 0
          }
        }
      }
    }
  }
  JOINT Spine
  {
    OFFSET 0.165834 0.87714 6.61349
    CHANNELS 3 Zrotation Xrotation Yrotation
    JOINT Spine1
    {
      OFFSET 7.38963 1.71661e-005 0
      CHANNELS 3 Zrotation Xrotation Yrotation
      JOINT Spine2
      {
        OFFSET 11.9445 1.14441e-005 0
        CHANNELS 3 Zrotation Xrotation Yrotation
        JOINT Spine3
        {
          OFFSET 14.7254 4.19617e-005 0
          CHANNELS 3 Zrotation Xrotation Yrotation
          JOINT Spine4
          {
            OFFSET 10.9679 0 0
            CHANNELS 3 Zrotation Xrotation Yrotation
            JOINT RightShoulder
            {
              OFFSET 2.46616 -1.6653 3.69651
              CHANNELS 3 Zrotation Xrotation Yrotation
              JOINT RightArm
              {
                OFFSET 13.0012 0 0
                CHANNELS 3 Zrotation Xrotation Yrotation
                JOINT RightForeArm
                {
                  OFFSET 28.7848 1.52588e-005 0
                  CHANNELS 3 Zrotation Xrotation Yrotation
                  JOINT RightHand
                  {
                    OFFSET 26.5688 1.52588e-005 0
                    CHANNELS 3 Zrotation Xrotation Yrotation
                    End Site
                    {
                      OFFSET 0 0 0
                    }
                  }
                }
              }
            }
            JOINT LeftShoulder
            {
              OFFSET 2.38034 -1.29275 -3.7523
              CHANNELS 3 Zrotation Xrotation Yrotation
              JOINT LeftArm
              {
                OFFSET 16.3182 6.10351e-005 0
                CHANNELS 3 Zrotation Xrotation Yrotation
                JOINT LeftForeArm
                {
                  OFFSET 27.0901 0 0
                  CHANNELS 3 Zrotation Xrotation Yrotation
                  JOINT LeftHand
                  {
                    OFFSET 24.5451 1.52588e-005 0
                    CHANNELS 3 Zrotation Xrotation Yrotation
                    End Site
                    {
                      OFFSET 0 0 0
                    }
                  }
                }
              }
            }
            JOINT Neck
            {
              OFFSET 5.0226 -0.0266342 0
              CHANNELS 3 Zrotation Xrotation Yrotation
              JOINT Head
              {
                OFFSET 6.69363 2.86102e-005 0
                CHANNELS 3 Zrotation Xrotation Yrotation
                End Site
                {
                  OFFSET 0 0 0
                }
              }
            }
          }
        }
      }
    }
  }
}
MOTION
Frames:	15
Frame Time:	0.0416667
25.676 90.7622 -278.331 31.8821 -80.0436 26.7416 -170.547 -0.389376 87.2234 -25.6864 25.4844 -3.78231 69.5482 13.7306 12.1909 44.3648 13.2051 8.1613 161.627 48.0841 90.7633 165.791 61.8529 152.504 68.3079 21.7768 11.1157 46.001 -4.09167 -54.2969 -0.793785 8.05019 -88.9815 10.7798 -1.11068 2.12821 -0.892546 -1.01596 2.17499 -23.4218 -1.69887 1.69618 -3.40919 -1.69886 1.69618 94.0041 -44.078 -95.6657 33.9985 -21.962 10.7184 -19.5547 -13.4077 -76.8995 -13.8821 1.08163 -13.7823 -92.3969 -46.9732 74.3658 -24.2146 -7.94389 31.3828 22.1054 -15.6569 -124.33 22.1864 -17.4278 -74.4024 15.7139 0.710985 -3.66076 7.48048 1.74976 1.39815 
25.6902 90.0155 -279.847 32.5855 -79.7919 27.3951 -171.71 3.59845 86.0239 -32.0869 22.197 -2.85748 70.5201 15.5836 12.6337 46.1764 14.738 7.64299 160.834 49.4021 90.4175 160.801 59.233 153.537 68.2116 22.4527 11.5854 43.1681 -2.63313 -51.6901 -1.01591 8.15842 -88.9088 10.5678 -1.52187 2.30532 -1.10446 -1.41896 2.37002 -23.6363 -2.14425 1.74152 -3.62371 -2.14426 1.74152 93.7939 -45.9456 -95.6753 33.8218 -20.0225 15.1907 -20.3245 -13.7303 -77.3492 -18.157 -0.146984 -4.6232 -94.3915 -48.1713 71.6714 -21.9913 -7.20384 24.4935 27.2825 -16.1888 -115.833 25.1497 -18.4452 -71.2342 17.4894 1.38589 -4.35871 7.02777 2.68367 1.84881 
25.8949 89.6705 -281.595 32.221 -78.9203 28.1465 -172.27 8.69123 85.9816 -38.3202 21.0139 -2.21491 69.033 13.9731 11.5047 49.0702 17.4549 8.41483 163.359 51.5389 89.4223 145.825 53.0306 160.622 57.5706 17.6949 12.0301 39.7833 -1.23163 -49.8012 -1.22816 8.10508 -88.998 10.6805 -1.98433 2.17425 -0.990923 -1.88673 2.25944 -23.5306 -2.54597 1.47735 -3.51792 -2.54596 1.47735 93.1437 -47.4388 -96.4503 33.2925 -19.5589 19.4556 -17.2798 -16.2138 -73.425 -32.9782 -1.10734 0.0879149 -94.6552 -47.0681 70.9412 -21.9433 -3.44899 17.1175 35.2755 -15.3178 -104.265 30.0684 -18.7737 -63.5296 17.9018 2.14823 -5.1074 6.61181 3.66113 2.15675 
26.3838 89.5682 -280.307 11.6576 -79.6949 10.9695 -170.886 9.94908 88.7312 -40.8249 20.1498 -2.2647 69.2952 14.0863 12.0263 48.9843 17.5026 9.06913 169.324 52.7755 89.5991 135.908 55.4166 162.438 40.4926 4.9359 7.42382 32.7186 5.6631 -58.7902 -0.98188 7.9459 -89.2974 10.9919 -1.62922 1.55365 -0.679005 -1.55927 1.62383 -23.2187 -2.0208 0.99212 -3.20606 -2.02079 0.992122 93.0238 -48.0939 -96.5197 33.601 -20.6482 25.3237 -14.6314 -16.1757 -72.2251 -30.829 -0.881631 -0.881327 -93.6323 -45.1658 71.9389 -23.3777 0.707797 12.5703 29.4224 -10.042 -98.2259 31.79 -14.5625 -49.6127 17.2221 3.45613 -5.66615 5.46684 5.07257 2.683 
26.6522 89.6314 -275.653 -23.7204 -79.8522 -22.0371 -168.647 6.70975 91.354 -40.772 20.0628 -3.48622 67.4446 10.5675 10.2547 48.8074 18.3523 13.8659 173.16 52.3496 93.5649 174.141 82.3082 123.329 24.7698 -3.10702 -0.519502 19.1682 17.3104 -95.6658 -0.53367 7.88291 -89.4933 11.111 -0.826959 1.0888 -0.560196 -0.778248 1.12411 -23.0953 -1.11595 0.789925 -3.08265 -1.11595 0.789927 93.5002 -47.815 -95.8163 34.4239 -22.0425 30.966 -14.5689 -16.1081 -72.6559 -30.6858 -0.727566 -1.43319 -92.2831 -43.865 73.681 -25.1001 4.9775 9.59181 17.6247 -6.55978 -99.25 32.7686 -3.79911 -16.0458 16.057 4.88931 -6.29148 5.21062 6.66419 3.83096 
26.7024 90.3037 -268.238 -31.5399 -79.4116 -28.2431 -168.468 1.56236 93.8191 -36.5481 20.1289 -2.88938 60.209 2.70672 4.54603 53.0286 22.6633 14.5276 171.505 49.6995 100.832 -64.8077 24.3937 2.9722 48.9591 3.08311 3.21826 48.4614 9.43682 26.1902 -0.57931 7.72717 -89.71 11.4226 -1.01719 0.680956 -0.248174 -0.986237 0.72507 -22.7861 -1.17482 0.343741 -2.7734 -1.17482 0.343732 93.6422 -47.5534 -95.6373 35.2873 -22.7118 36.8164 -16.0963 -15.3916 -74.7016 -28.8299 -0.871706 -0.760791 -91.0235 -42.0565 75.2026 -26.5355 7.81898 8.86155 12.5761 -6.51889 -105.507 35.2213 1.83776 1.32021 15.265 6.11744 -7.50096 4.26926 8.22923 5.66359 
26.7084 91.0566 -260.347 -30.6383 -79.5589 -27.145 -169.26 -3.77863 94.5741 -30.8669 19.8815 -1.63339 48.4577 -6.492 -3.81753 50.6013 21.1737 18.1239 173.329 44.3137 98.7414 -47.5175 2.9613 2.6434 65.1648 -2.52141 -1.50882 37.8727 0.0108352 -7.32452 -0.753698 7.60076 -89.8619 11.6755 -1.43431 0.424842 0.00526978 -1.41423 0.487566 -22.5362 -1.49568 -0.0259648 -2.52351 -1.49568 -0.0259689 93.2712 -46.619 -96.3977 36.5019 -20.8964 41.8294 -16.419 -14.5699 -75.1616 -27.8308 -0.694626 -1.39361 -90.7853 -41.7542 75.5096 -26.3913 8.70243 8.73195 12.7486 -8.2512 -111.216 35.6576 1.4932 0.216476 14.672 6.97651 -7.8907 3.57003 9.1948 7.10867 
26.3529 91.5691 -252.526 -32.7426 -80.8169 -29.2479 -169.801 -7.24107 95.2035 -30.5747 22.0593 -0.646538 40.0767 -12.1173 -6.70194 37.5328 7.31245 16.9826 174.564 41.0413 97.7468 -33.8923 3.36103 3.00026 58.4393 -0.196321 0.0431281 38.8069 0.367291 -5.82193 -0.89685 7.65776 -89.9572 11.5615 -1.764 0.26732 -0.108306 -1.75053 0.344717 -22.653 -1.76277 -0.275363 -2.64031 -1.76277 -0.275368 92.9891 -45.8961 -96.9916 36.5333 -18.8795 43.7397 -15.6522 -13.7798 -74.6625 -26.3399 -0.529264 -2.06547 -90.8582 -42.0196 75.4624 -26.2018 10.0553 9.44546 13.6735 -10.4185 -115.566 34.0217 1.29263 -0.162837 15.1484 7.58706 -7.99115 2.10952 9.77391 7.45689 
26.1427 91.3687 -244.678 -31.7541 -80.2359 -30.3433 -171.375 -6.55398 92.6553 -35.3485 22.085 -0.571273 38.6946 -13.1706 -5.32214 30.9525 0.92396 10.456 175.853 41.1567 95.7576 -29.0112 0.525442 1.86362 55.2475 0.917 0.868042 41.1716 0.300493 -7.2512 -0.923061 7.46757 -89.8138 11.9441 -1.74756 0.560162 0.274131 -1.72121 0.636534 -22.2704 -1.83509 0.0088829 -2.2578 -1.83509 0.00887255 93.5687 -45.3556 -96.15 36.47 -16.8276 43.2444 -14.1756 -12.5876 -73.7984 -26.0683 -0.259279 -3.28136 -90.7854 -41.6572 75.4832 -27.022 12.4505 10.022 15.1574 -12.1452 -116.989 34.2808 1.45948 0.307213 14.8237 7.72247 -7.27159 1.8754 9.70289 7.51056 
26.0079 90.8174 -237.329 -35.9424 -81.3832 -36.3113 -171.759 -4.10723 91.0543 -44.9652 18.6266 -0.844656 42.2862 -10.3873 -4.0768 31.1864 1.07219 11.3957 175.691 40.9911 94.5528 -34.86 -0.837944 1.38504 59.7946 -0.291815 0.018335 34.8685 0.359265 -6.03252 -0.892096 7.51263 -89.7279 11.8545 -1.64592 0.718429 0.184394 -1.61271 0.79017 -22.3589 -1.78572 0.190402 -2.34626 -1.78573 0.190397 93.7059 -44.7908 -96.0291 35.7441 -14.9362 41.2866 -14.0226 -11.7875 -73.5058 -25.7345 -0.27411 -3.2448 -91.467 -42.1624 74.51 -28.1416 14.2083 11.0664 14.9155 -11.8618 -114.95 33.9572 1.19234 -0.487317 13.2789 7.48727 -5.06049 3.09542 8.90521 6.59219 
26.0778 90.1131 -230.306 -47.5776 -82.9313 -48.4077 -171.058 0.0180375 90.0011 -55.5485 15.7127 -1.10835 43.4817 -9.26954 -3.21734 36.0779 5.78602 15.1433 175.271 39.0287 94.643 -45.1173 2.22293 1.0957 69.2727 -3.74609 -1.98425 26.7566 0.219309 -3.75282 -0.765621 7.69316 -89.7638 11.4917 -1.41274 0.61528 -0.178644 -1.38428 0.676866 -22.7198 -1.53233 0.162158 -2.70711 -1.53233 0.162157 93.8875 -45.0776 -95.6784 33.8526 -13.9723 37.4785 -15.8998 -11.9079 -73.5425 -25.9223 -0.285032 -3.10788 -92.2042 -42.9452 73.5427 -29.5238 15.521 12.0941 12.7858 -9.70964 -109.269 30.8697 0.690138 -1.72258 11.2346 7.33613 -2.90835 5.22013 8.26406 5.53477 
26.3363 89.5314 -223.668 -66.2685 -84.7175 -66.299 -170.524 5.49133 91.4471 -65.8925 11.7172 -0.695699 46.9044 -6.27089 -1.67049 38.925 8.71702 15.9123 175.547 35.4815 94.8809 -52.2545 3.02011 0.337391 73.2306 -5.58218 -2.78102 30.3979 0.262297 -3.7365 -0.690299 7.94977 -89.8806 10.9766 -1.31892 0.36366 -0.69375 -1.30164 0.421361 -23.2347 -1.36725 -0.0496278 -3.22207 -1.36724 -0.0496266 93.717 -46.3149 -95.7351 30.9448 -13.5812 31.6468 -16.7161 -12.8382 -73.1517 -25.5705 -0.426674 -2.43078 -93.0209 -43.8218 72.4974 -31.3492 15.399 13.8219 12.0601 -6.85388 -102.001 34.0524 1.30444 -0.156723 8.99798 7.10313 -2.5967 7.50073 8.08567 5.91293 
26.3944 89.0767 -216.677 -86.9112 -78.8605 -81.7865 -165.601 12.8282 96.0056 -73.3542 8.61204 -1.32604 51.3365 -2.97435 0.231919 40.0805 10.0018 17.1134 178.642 30.2819 100.564 -53.7417 2.97651 -0.66812 76.3572 -7.5772 -3.53622 33.8629 0.336598 -4.13882 0.249464 8.14776 -90.4558 10.5786 0.287388 -0.931733 -1.09263 0.246103 -0.943482 -23.6259 0.554112 -0.802297 -3.61328 0.554124 -0.802292 93.4023 -46.6472 -96.1823 28.259 -13.4668 23.8858 -16.426 -13.6313 -71.6924 -25.4599 -0.843748 -0.618794 -94.3653 -46.5541 71.2272 -31.4696 15.015 15.1442 13.8932 -4.6952 -92.999 31.8669 1.83202 1.86612 9.02302 6.89009 -1.17462 7.85138 7.54227 5.1663 
26.3158 88.645 -209.929 -93.3246 -77.4412 -87.2738 -164.514 19.8778 96.643 -77.2458 5.60696 -1.20391 56.0498 0.273347 1.25386 42.2221 12.2065 16.7883 179.912 24.1341 101.268 -53.8734 5.39033 -1.26603 81.9568 -10.5782 -4.3722 35.6116 0.356314 -3.11994 0.590229 8.3174 -90.5735 10.2427 0.914011 -1.2169 -1.4285 0.85957 -1.25595 -23.9636 1.23747 -0.885966 -3.95093 1.23747 -0.885963 92.8965 -45.6373 -97.1921 27.6835 -12.8609 16.507 -19.3065 -14.9299 -71.8042 -25.5424 -1.47191 2.22799 -94.4624 -47.8058 71.4578 -32.3726 15.8696 15.9071 14.8857 -2.38631 -82.6457 34.7232 2.10087 2.19335 9.89692 6.35254 -0.563808 6.82687 6.85058 5.11837 
25.9516 89.0345 -203.21 -88.1403 -79.1772 -84.6034 -165.46 27.25 93.3664 -75.8039 3.75774 -1.278 58.6119 2.02718 2.2641 44.351 14.3926 16.6352 178.699 19.4313 98.1453 -52.6423 6.10155 -1.57061 84.5491 -11.7795 -4.56891 38.8495 0.440622 -3.10035 0.540227 8.19045 -90.2903 10.4974 0.942809 -0.662189 -1.17341 0.912746 -0.703051 -23.711 1.09824 -0.348203 -3.69836 1.09823 -0.348209 93.124 -44.7138 -97.0018 28.893 -13.6782 11.3525 -17.6441 -14.1832 -73.0629 -27.0628 -1.23716 0.89597 -94.1697 -47.7759 71.8909 -34.2618 16.6603 18.9158 12.6723 1.62117 -76.8433 39.3747 3.19247 4.11305 10.2044 5.64804 -0.738525 6.28644 6.14516 4.8349 
